<?xml version="1.0" encoding="UTF-8" standalone="no"?>
<svg xmlns:rdf="http://www.w3.org/1999/02/22-rdf-syntax-ns#" xmlns="http://www.w3.org/2000/svg" xmlns:osb="http://www.openswatchbook.org/uri/2009/osb" height="511.79mm" width="757.56mm" version="1.1" xmlns:cc="http://creativecommons.org/ns#" viewBox="0 0 2684.2681 1813.4157" xmlns:dc="http://purl.org/dc/elements/1.1/">
	<g transform="translate(1383.4 -287.99)">
		<path d="m640.5 1448.4c-16.172 29.512-205.52 67.611-205.52-143.76 0-82.92 45.091-131.02 134.47-132.26 93.961-1.3089 139.06 121.12 97.686 131.59 0 0-53.562 1.004-230.94 1.004" stroke="#000" stroke-width="30" fill="none"/>
	</g>
	<g transform="translate(1383.4 -287.99)" stroke="#000" stroke-width="30" fill="none">
		<path d="m-1290.5 1480.1v-926.97c-0.066 0.0167 7.5087-60.929-42.628-119.66-0.4555-0.5336 0.2847 0.22773 0 0h180.13c-3.3 2.7184-59.781 0-55.826 118.56 0 0-1.1538-0.0958 0 0 476.87 39.573 654.9 404.14 706.16 494.62v-493.52c0-44.988-35.103-109.2-45.491-119.66h183c-0.47131 0.30366-50.959 11.27-53.96 119.66v926.97c0.42419 38.631 7.4973 79.969 53.96 116.23h-183c25.695-17.001 47.172-56.643 45.491-116.23v-174.06c9.6363-142.55-296.44-670.77-702-661.88l-2.2902 835.94s-1.952 64.186 53.96 116.23h-183s45.491-32.063 45.491-116.23z" stroke-linecap="round"/>
		<path d="m346.73 1149.7v194.08 402.52s24.291 340.1-199.01 340.1h-1102.7c-21.399 0-164.81-47.218-164.9-193.55-0.095-146.46 132.78-174.9 157.64-174.9h1896s158.65 6.0729 164.72-52.227"/>
		<g transform="translate(132.9 26.056)">
			<path d="m637.81 1461v-295.55-38.057"/>
			<path d="m637.81 1165.5s210.71-40.122 207.92 129.94c-0.22885 13.965 1.2389 165.1 1.2389 165.1"/>
		</g>
		<path d="m1062.6 1209.5s223.3-126.54 223.3 90.464v166.04c-0.5011 1.5032-231.7 38.537-212.99-90.464 13.249-91.36 139.43-73.897 212.99-75.578"/>
		<g stroke-linecap="round">
			<ellipse rx="149.97" ry="152.26" cy="1322.1" cx="-192.45"/>
			<circle cy="1322.1" cx="196.76" r="149.97"/>
			<circle cx="196.76" cy="1322.1" r="149.97"/>
		</g>
	</g>
</svg>
