<?xml version="1.0" encoding="UTF-8" standalone="no"?>
<!-- Created with Inkscape (http://www.inkscape.org/) -->

<svg
   xmlns:osb="http://www.openswatchbook.org/uri/2009/osb"
   xmlns:dc="http://purl.org/dc/elements/1.1/"
   xmlns:cc="http://creativecommons.org/ns#"
   xmlns:rdf="http://www.w3.org/1999/02/22-rdf-syntax-ns#"
   xmlns:svg="http://www.w3.org/2000/svg"
   xmlns="http://www.w3.org/2000/svg"
   xmlns:sodipodi="http://sodipodi.sourceforge.net/DTD/sodipodi-0.dtd"
   xmlns:inkscape="http://www.inkscape.org/namespaces/inkscape"
   width="757.56012mm"
   height="511.78622mm"
   viewBox="0 0 2684.2681 1813.4157"
   id="svg2"
   version="1.1"
   inkscape:version="0.91 r13725"
   inkscape:export-filename="/home/daniel/Desktop/a"
   inkscape:export-xdpi="90"
   inkscape:export-ydpi="90"
   sodipodi:docname="Nogena edit final.svg">
  <defs
     id="defs4">
    <linearGradient
       id="linearGradient5832"
       osb:paint="solid">
      <stop
         style="stop-color:#000000;stop-opacity:1;"
         offset="0"
         id="stop5834" />
    </linearGradient>
  </defs>
  <sodipodi:namedview
     id="base"
     pagecolor="#ffffff"
     bordercolor="#666666"
     borderopacity="1.0"
     inkscape:pageopacity="0.0"
     inkscape:pageshadow="2"
     inkscape:zoom="0.35355339"
     inkscape:cx="1324.2238"
     inkscape:cy="958.05958"
     inkscape:document-units="px"
     inkscape:current-layer="layer5"
     showgrid="false"
     showborder="true"
     inkscape:snap-global="false"
     inkscape:snap-bbox="true"
     inkscape:bbox-nodes="true"
     inkscape:bbox-paths="true"
     inkscape:snap-bbox-edge-midpoints="true"
     inkscape:snap-grids="true"
     inkscape:snap-to-guides="true"
     inkscape:snap-intersection-paths="true"
     inkscape:object-paths="true"
     inkscape:snap-smooth-nodes="true"
     inkscape:object-nodes="true"
     inkscape:snap-midpoints="true"
     inkscape:window-width="1855"
     inkscape:window-height="1056"
     inkscape:window-x="65"
     inkscape:window-y="24"
     inkscape:window-maximized="1"
     inkscape:snap-bbox-midpoints="true"
     inkscape:snap-center="true"
     inkscape:snap-object-midpoints="true"
     fit-margin-top="0"
     fit-margin-left="0"
     fit-margin-right="0"
     fit-margin-bottom="0"
     borderlayer="false" />
  <metadata
     id="metadata7">
    <rdf:RDF>
      <cc:Work
         rdf:about="">
        <dc:format>image/svg+xml</dc:format>
        <dc:type
           rdf:resource="http://purl.org/dc/dcmitype/StillImage" />
        <dc:title></dc:title>
      </cc:Work>
    </rdf:RDF>
  </metadata>
  <g
     inkscape:groupmode="layer"
     id="layer5"
     inkscape:label="Layer 5"
     style="display:inline"
     transform="translate(1383.3564,-287.98682)"
     sodipodi:insensitive="true">
    <path
       style="fill:none;fill-rule:evenodd;stroke:#000000;stroke-width:30;stroke-linecap:butt;stroke-linejoin:miter;stroke-miterlimit:4;stroke-dasharray:none;stroke-opacity:1"
       d="m 640.50211,1448.4209 c -16.17162,29.5119 -205.5229,67.6113 -205.5229,-143.7564 0,-82.9203 45.09115,-131.0158 134.47247,-132.2609 93.96094,-1.3089 139.05762,121.1152 97.6864,131.5923 0,0 -53.56214,1.004 -230.93936,1.004"
       id="path5900"
       inkscape:connector-curvature="0"
       sodipodi:nodetypes="ccscc" />
  </g>
  <g
     inkscape:groupmode="layer"
     id="layer3"
     inkscape:label="Layer 3"
     style="display:inline"
     transform="translate(1383.3564,-287.98682)"
     sodipodi:insensitive="true">
    <path
       style="fill:none;fill-rule:evenodd;stroke:#000000;stroke-width:30;stroke-linecap:round;stroke-linejoin:miter;stroke-miterlimit:4;stroke-dasharray:none;stroke-dashoffset:0;stroke-opacity:1"
       d="m -1290.5465,1480.0633 0,-926.97196 c -0.066,0.0167 7.5087,-60.92867 -42.6283,-119.66469 -0.4555,-0.5336 0.2847,0.22773 0,0 l 180.1339,0 c -3.3,2.71836 -59.781,0 -55.8259,118.565 0,0 -1.1538,-0.0958 0,0 476.86771,39.57336 654.90473,404.13812 706.16056,494.62365 l 0,-493.524 c 0,-44.98753 -35.10276,-109.20269 -45.4911,-119.66469 l 182.9967,0 c -0.47131,0.30366 -50.95899,11.26998 -53.9598,119.66469 l 0,926.972 c 0.42419,38.6309 7.49727,79.9688 53.9598,116.2293 l -182.9967,0 c 25.69479,-17.0013 47.17248,-56.6429 45.4911,-116.2293 l 0,-174.0577 c 9.63627,-142.5476 -296.43631,-670.76521 -702.00426,-661.87748 l -2.2902,835.93518 c 0,0 -1.952,64.1863 53.9598,116.2293 l -182.9967,0 c 0,0 45.4911,-32.0632 45.4911,-116.2293 z"
       id="path3403"
       inkscape:connector-curvature="0"
       sodipodi:nodetypes="scsccssccccccccccccccs" />
    <path
       style="fill:none;fill-rule:evenodd;stroke:#000000;stroke-width:30;stroke-linecap:butt;stroke-linejoin:miter;stroke-miterlimit:4;stroke-dasharray:none;stroke-opacity:1"
       d="m 346.72673,1149.6971 0,194.0827 0,402.5231 c 0,0 24.29107,340.0996 -199.00668,340.0996 l -1102.74735,0 c -21.39948,0 -164.8058,-47.2179 -164.9006,-193.5512 -0.095,-146.461 132.77841,-174.8995 157.64135,-174.8995 l 1895.95196,0 c 0,0 158.64649,6.0729 164.71939,-52.2269"
       id="path4224"
       inkscape:connector-curvature="0"
       sodipodi:nodetypes="cccscsccc" />
    <g
       id="g4240"
       transform="translate(132.90461,26.0564)">
      <path
         inkscape:connector-curvature="0"
         id="path4230"
         d="m 637.80891,1461.0306 0,-295.5478 0,-38.0568"
         style="fill:none;fill-rule:evenodd;stroke:#000000;stroke-width:30;stroke-linecap:butt;stroke-linejoin:miter;stroke-miterlimit:4;stroke-dasharray:none;stroke-opacity:1"
         sodipodi:nodetypes="ccc" />
      <path
         sodipodi:nodetypes="csc"
         inkscape:connector-curvature="0"
         id="path4238"
         d="m 637.80891,1165.4828 c 0,0 210.70577,-40.1224 207.91903,129.9361 -0.22885,13.9651 1.23892,165.0997 1.23892,165.0997"
         style="fill:none;fill-rule:evenodd;stroke:#000000;stroke-width:30;stroke-linecap:butt;stroke-linejoin:miter;stroke-miterlimit:4;stroke-dasharray:none;stroke-opacity:1" />
    </g>
    <path
       style="fill:none;fill-rule:evenodd;stroke:#000000;stroke-width:30;stroke-linecap:butt;stroke-linejoin:miter;stroke-miterlimit:4;stroke-dasharray:none;stroke-opacity:1"
       d="m 1062.6141,1209.5196 c 0,0 223.2977,-126.5354 223.2977,90.4642 l 0,166.0419 c -0.5011,1.5032 -231.6989,38.5369 -212.9916,-90.4642 13.2487,-91.3602 139.4254,-73.8974 212.9916,-75.5777"
       id="path4244"
       inkscape:connector-curvature="0"
       sodipodi:nodetypes="cscsc" />
    <ellipse
       style="fill:none;stroke:#000000;stroke-width:30;stroke-linecap:round;stroke-linejoin:miter;stroke-miterlimit:4;stroke-dasharray:none;stroke-dashoffset:0;stroke-opacity:1"
       id="path4388"
       cx="-192.4516"
       cy="1322.1183"
       rx="149.96875"
       ry="152.25899" />
    <circle
       r="149.96875"
       cy="1322.1183"
       cx="196.75798"
       id="circle5865"
       style="fill:none;stroke:#000000;stroke-width:30;stroke-linecap:round;stroke-linejoin:miter;stroke-miterlimit:4;stroke-dasharray:none;stroke-dashoffset:0;stroke-opacity:1" />
    <circle
       style="fill:none;stroke:#000000;stroke-width:30;stroke-linecap:round;stroke-linejoin:miter;stroke-miterlimit:4;stroke-dasharray:none;stroke-dashoffset:0;stroke-opacity:1"
       id="circle5906"
       cx="196.75798"
       cy="1322.1183"
       r="149.96875" />
  </g>
</svg>
